<svg width="52" height="66" viewBox="0 0 52 66" fill="none" xmlns="http://www.w3.org/2000/svg">
<path d="M24.3043 13.8936C24.3043 13.6569 24.1561 13.5112 23.9338 13.584C22.952 13.8753 21.7478 14.0938 20.4881 14.2759C18.8948 14.4944 16.5791 14.6765 15.375 14.6765C15.2082 14.6765 15.1156 14.7675 15.1156 14.9678C15.1156 15.1863 15.4305 15.3319 15.5046 15.3683C17.6351 16.1512 18.9319 18.9915 19.0245 20.6848V31.2995C16.9496 31.1538 14.8192 31.2995 12.7628 31.9367C6.00097 34.0124 -0.779431 41.8778 0.0727502 50.9813C0.387687 54.3678 1.81416 57.9182 3.98167 60.7221C6.26033 63.6716 9.05771 65.3649 11.9107 65.547C12.0589 65.5652 12.2256 65.5652 12.3738 65.5652C17.5054 65.5652 20.414 60.54 21.7293 57.8636C23.1743 55.2236 24.3043 51.6914 24.3043 47.3217C24.3043 46.12 24.3043 13.9482 24.3043 13.8936ZM19.0245 47.9225C19.0245 57.8636 16.3754 63.3803 12.3923 63.3803C12.2441 63.3803 12.0959 63.3803 11.9477 63.3621C11.0585 63.2711 10.3175 62.8705 9.70611 62.1787C8.37226 60.6493 7.85354 57.809 8.33521 54.5499C8.50194 53.4757 8.74277 52.6018 9.02066 51.8917C10.1507 53.2026 12.1515 53.3665 13.4668 52.2012C14.6525 51.1634 14.8377 49.3791 13.9114 48.1228C12.8555 46.7027 10.8176 46.4296 9.42822 47.522C8.7613 48.05 6.77905 49.8161 6.11212 54.2404C5.79719 56.3888 5.85276 58.3734 6.26033 60.0667C4.09282 57.5723 2.55519 54.0219 2.25878 50.7811C1.53628 43.0248 7.44597 35.8513 13.4112 34.0124C15.2082 33.4479 17.1349 33.3387 19.006 33.5026C19.0245 38.0179 19.0245 43.1523 19.0245 47.9225Z" fill="#F1F3F3"/>
<path d="M28.2609 51.6716C28.2609 51.9083 28.4056 52.054 28.6228 51.9812C29.5818 51.6898 30.758 51.4714 31.9884 51.2893C33.5446 51.0708 35.8064 50.8887 36.9826 50.8887C37.1454 50.8887 37.2359 50.7977 37.2359 50.5974C37.2359 50.3789 36.9283 50.2333 36.8559 50.1969C34.775 49.414 33.5084 46.5737 33.4179 44.8804L33.4179 34.2657C35.4445 34.4113 37.5254 34.2657 39.534 33.6284C46.1386 31.5528 52.7613 23.6874 51.9289 14.5839C51.6213 11.1973 50.228 7.64697 48.1109 4.84308C45.8853 1.89354 43.1529 0.20028 40.3663 0.0182124C40.2216 4.8444e-06 40.0587 1.04394e-06 39.914 1.0566e-06C34.9017 1.49478e-06 32.0608 5.02515 30.7761 7.70159C29.3647 10.3416 28.2609 13.8738 28.2609 18.2435C28.2609 19.4451 28.2609 51.617 28.2609 51.6716ZM33.4179 17.6426C33.4179 7.70159 36.0055 2.18485 39.8959 2.18485C40.0406 2.18485 40.1854 2.18485 40.3301 2.20306C41.1987 2.29409 41.9225 2.69465 42.5196 3.38652C43.8224 4.91591 44.3291 7.75621 43.8586 11.0153C43.6958 12.0895 43.4605 12.9634 43.1891 13.6735C42.0853 12.3626 40.1311 12.1987 38.8464 13.364C37.6883 14.4018 37.5073 16.1861 38.4121 17.4424C39.4435 18.8625 41.4339 19.1356 42.791 18.0432C43.4425 17.5152 45.3786 15.7491 46.03 11.3248C46.3376 9.17636 46.2833 7.19179 45.8853 5.49854C48.0024 7.9929 49.5042 11.5433 49.7937 14.7841C50.4994 22.5403 44.7272 29.7139 38.9006 31.5528C37.1454 32.1173 35.2636 32.2265 33.436 32.0626C33.4179 27.5473 33.4179 22.4129 33.4179 17.6426Z" fill="#F1F3F3"/>
</svg>
