<svg width="288" height="294" viewBox="0 0 288 294" fill="none" xmlns="http://www.w3.org/2000/svg">
<path d="M67.3049 147.517C71.7733 139.211 75.2678 128.097 75.2678 114.348C75.2678 110.567 75.2678 94.1261 75.2678 75.336C78.3613 76.4245 83.288 77.7993 85.694 78.8878C85.694 78.8878 83.1161 87.8818 82.5432 96.9332C81.9131 107.474 84.1473 141.388 108.494 135.43C125.279 131.305 126.941 117.27 127.055 108.677C127.17 102.605 121.326 97.8498 115.369 99.1674C110.843 100.141 107.635 104.266 107.749 108.906C107.921 114.119 112.161 118.301 117.431 118.301C117.947 118.301 118.405 118.244 118.863 118.187C118.634 120.077 116.629 127.123 108.15 128.899C100.359 130.503 95.7765 122.712 96.464 100.829C96.8077 89.5432 98.0107 85.4758 98.0107 85.4758C98.0107 85.4758 103.167 88.7411 111.015 89.7723C117.202 90.5743 122.759 90.2306 125.394 90.0015C126.31 89.9442 126.941 89.1422 126.941 88.2828C126.769 77.3983 124.649 56.2022 108.38 56.9469C100.188 57.3479 92.2247 63.9359 88.2719 72.529C85.1784 71.1541 79.2779 69.3782 75.3251 68.0606C75.3251 39.8181 75.3251 9.34151 75.3251 9.16965C75.3251 8.42492 74.8668 7.96662 74.1794 8.19577C71.1431 9.11236 67.4195 9.7998 63.524 10.3727C58.5973 11.0601 51.4364 11.633 47.6555 11.633C47.1399 11.633 46.8535 11.9194 46.8535 12.5496C46.8535 13.237 47.8274 13.6953 48.0565 13.8099C54.6445 16.2732 58.6546 25.21 58.941 30.5377V63.9359C52.5249 63.4776 45.9369 63.9359 39.5781 65.941C18.6683 72.4144 -2.29866 97.2196 0.336537 125.806C1.31041 136.461 5.72151 147.632 12.4241 156.454C19.4704 165.735 28.1207 171.062 36.9429 171.635C37.4012 171.693 37.9167 171.693 38.375 171.693C54.3008 171.693 63.2375 155.939 67.3049 147.517ZM108.437 62.8475C116.056 62.6756 115.025 83.127 115.025 83.127C108.666 82.4396 102.135 79.7471 99.4429 78.2576C100.531 72.8727 103.625 62.962 108.437 62.8475ZM38.4323 164.818C37.974 164.818 37.5157 164.818 37.0574 164.761C34.3077 164.474 32.0162 163.214 30.1257 161.037C26.0011 156.225 24.397 147.288 25.8865 137.034C26.4021 133.654 27.1468 130.904 28.0061 128.67C31.5006 132.795 37.6876 133.31 41.755 129.644C45.4213 126.379 45.9942 120.765 43.1298 116.812C39.8645 112.343 33.5629 111.484 29.2664 114.921C27.2041 116.583 21.0744 122.139 19.0121 136.06C18.0382 142.82 18.21 149.064 19.4704 154.392C12.7678 146.544 8.01298 135.373 7.09639 125.176C4.8622 100.771 23.1367 78.2003 41.5831 72.4144C47.1399 70.6385 53.0978 70.2948 58.8837 70.8103C58.8837 85.0175 58.8837 101.172 58.8837 116.182C58.941 147.518 50.749 164.818 38.4323 164.818Z" fill="#F1F3F3"/>
<path d="M136.737 120.593C140.919 124.202 147.277 125.519 154.209 123.801C174.088 118.759 174.661 107.245 174.661 99.5111C174.718 92.9231 172.14 83.9291 162.688 79.2888C162.172 79.0024 161.485 79.0597 160.969 79.3461L154.095 83.4135L153.923 75.6225C153.923 74.935 153.522 74.3049 152.892 74.0757C149.684 72.6436 140.059 67.8887 140.059 62.2746C140.059 56.7751 145.444 54.2545 150.887 52.8796C156.042 51.8484 159.881 52.364 163.146 55.2856C157.475 55.3429 153.006 60.2696 153.694 66.1128C154.209 70.5239 157.761 74.0757 162.172 74.5913C167.958 75.2787 172.885 70.8104 172.999 65.1963C172.999 64.7952 173.515 55.0565 166.927 49.3851C162.745 45.776 156.787 44.4584 149.283 46.3489C129.576 51.3328 130.722 65.3681 130.722 67.8887C130.664 74.4767 135.591 83.6999 145.272 88.3402C145.788 88.5693 146.418 88.5693 146.934 88.2256L153.751 84.1009L153.98 92.0065C153.98 92.6367 154.324 93.2095 154.897 93.5533C157.589 94.9854 165.323 99.5111 165.323 105.125C165.323 112.63 158.219 115.723 152.777 117.098C147.621 118.129 143.783 117.614 140.518 114.692C146.189 114.635 150.657 109.708 149.97 103.865C149.454 99.4538 145.903 95.902 141.492 95.3865C135.706 94.699 130.779 99.1674 130.664 104.781C130.607 105.24 130.149 114.921 136.737 120.593Z" fill="#F1F3F3"/>
<path d="M235.9 95.6729C240.082 99.282 246.441 100.6 253.373 98.8809C273.251 93.8397 273.824 82.325 273.824 74.5913C273.881 68.0033 271.304 59.0093 261.851 54.369C261.336 54.0826 260.648 54.1399 260.133 54.4263L253.258 58.4937L253.086 50.7027C253.086 50.0152 252.685 49.3851 252.055 49.1559C248.847 47.7237 239.223 42.9689 239.223 37.3548C239.223 31.8553 244.608 29.3347 250.05 27.9598C255.206 26.9286 259.044 27.4442 262.31 30.3658C256.638 30.4231 252.17 35.3498 252.857 41.193C253.373 45.6041 256.925 49.1559 261.336 49.6715C267.122 50.3589 272.048 45.8906 272.163 40.2765C272.163 39.8754 272.678 30.1367 266.09 24.4653C261.909 20.8562 255.951 19.5386 248.446 21.4291C228.739 26.413 229.885 40.4483 229.885 42.9689C229.828 49.5569 234.755 58.7801 244.436 63.4204C244.952 63.6495 245.582 63.6495 246.097 63.3058L252.914 59.1811L253.144 67.0867C253.144 67.7169 253.487 68.2897 254.06 68.6335C256.753 70.0656 264.486 74.5913 264.486 80.2054C264.486 87.71 257.383 90.8035 251.941 92.1784C246.785 93.2095 242.947 92.694 239.681 89.7723C245.353 89.715 249.821 84.7884 249.134 78.9451C248.618 74.534 245.066 70.9822 240.655 70.4666C234.869 69.7792 229.942 74.2476 229.828 79.8617C229.771 80.2627 229.312 89.9442 235.9 95.6729Z" fill="#F1F3F3"/>
<path d="M191.503 30.6522C201.242 32.1417 210.866 26.1266 213.73 18.6793C216.136 12.3777 215.162 4.35753 213.845 1.09218C213.616 0.576599 213.043 0.290165 212.527 0.519312C212.126 0.691173 211.897 1.03489 211.897 1.4359C211.84 5.50327 210.579 17.8772 202.445 20.3979C202.101 15.1848 197.575 11.0601 192.133 11.4038C187.435 11.6903 183.54 15.5285 183.139 20.226C182.681 25.4964 186.462 29.9648 191.503 30.6522Z" fill="#F1F3F3"/>
<path d="M284.709 220.616C284.479 217.751 284.651 169.401 284.88 166.537C285.511 159.089 287.172 157.485 287.401 156.282C287.573 155.423 286.885 155.022 286.255 155.194C285.797 155.309 277.261 157.428 272.736 158.631C271.246 159.032 270.387 160.522 270.673 162.011C271.017 163.558 271.361 165.907 271.647 169.229C271.647 169.287 271.647 169.401 271.647 169.458C269.356 163.443 265.804 158.688 260.132 160.006C248.274 162.813 237.332 176.562 237.218 205.606C237.16 229.724 250.852 241.124 262.08 238.26C266.892 237 269.929 232.073 271.876 226.459V231.672C271.876 232.818 272.965 233.677 274.053 233.391L286.255 230.297C286.771 230.183 287.573 230.125 287.401 229.209C287.172 228.177 285.339 228.12 284.709 220.616ZM271.876 205.148C271.876 213.397 269.528 229.781 261.794 231.729C257.211 232.875 252.055 219.584 252.055 201.883C252.055 180.687 256.409 167.511 261.794 166.136C267.694 164.589 271.876 183.78 271.876 191.17V205.148Z" fill="#F1F3F3"/>
<path d="M231.375 234.021C231.145 231.156 231.203 186.415 231.203 186.415C231.203 176.791 227.766 168.484 218.886 170.719C210.293 172.896 204.679 180.801 201.127 192.946L201.986 179.025C201.986 177.88 200.955 177.02 199.867 177.307L187.55 180.4C187.035 180.515 186.29 180.744 186.462 181.431C186.691 182.577 188.524 182.692 189.154 190.139C189.383 193.003 189.211 241.353 188.982 244.218C188.352 251.665 186.691 253.269 186.462 254.472C186.29 255.331 186.863 255.79 187.55 255.618L203.991 251.379C204.507 251.264 205.309 251.149 205.137 250.29C204.908 249.144 202.846 248.973 202.216 241.525C201.986 238.661 201.986 223.766 201.986 223.766C201.986 193.462 212.986 179.083 216.766 179.083C218.256 179.083 218.829 181.317 218.829 188.42C218.829 188.42 218.829 233.849 218.6 236.713C217.969 244.16 215.907 245.879 215.678 247.025C215.506 247.884 216.194 248.342 216.824 248.171C217.511 247.999 233.151 244.046 233.151 244.046C233.666 243.931 234.411 243.645 234.296 242.9C234.124 241.697 232.005 241.468 231.375 234.021Z" fill="#F1F3F3"/>
<path d="M192.42 114.234C201.013 112.057 206.684 104.037 210.236 91.8919L209.377 105.813C209.377 106.958 210.465 107.76 211.553 107.474L220.49 105.297C220.605 105.297 220.662 105.24 220.777 105.182V105.24L223.756 104.495C224.271 104.38 225.073 104.266 224.901 103.407C224.672 102.261 222.839 102.146 222.209 94.699C221.98 91.8346 222.152 43.4845 222.381 40.6201C223.011 33.1729 224.672 31.5688 224.901 30.3658C225.073 29.5065 224.386 29.1055 223.756 29.2773C223.068 29.4492 207.429 33.5166 207.429 33.5166C206.913 33.6311 206.111 33.7457 206.283 34.605C206.512 35.7508 208.575 35.9226 209.205 43.3699C209.434 46.2343 209.434 61.1289 209.434 61.1289C209.434 91.4336 198.435 105.813 194.654 105.813C193.164 105.813 192.591 103.578 192.591 96.4749C192.591 96.4749 192.591 51.0464 192.821 48.182C193.451 40.7347 195.513 39.1307 195.742 37.9277C195.914 37.0684 195.227 36.6674 194.597 36.8392C193.909 37.0111 178.27 40.9639 178.27 40.9639C177.754 41.0784 176.952 41.193 177.124 42.0523C177.353 43.1981 179.416 43.3699 180.046 50.8172C180.275 53.6816 180.218 98.4226 180.218 98.4226C180.16 107.99 183.54 116.468 192.42 114.234Z" fill="#F1F3F3"/>
<path d="M171.223 227.032C166.698 228.006 163.49 232.13 163.604 236.77C163.776 241.984 168.015 246.166 173.286 246.166C173.801 246.166 174.26 246.108 174.718 246.051C174.489 247.941 172.484 254.988 164.005 256.764C156.214 258.368 151.631 250.577 152.319 228.693C152.376 226.344 152.548 223.995 152.777 221.761C162.516 218.038 172.656 217.35 179.816 217.522C181.478 217.579 182.795 216.204 182.738 214.6C182.394 203.372 179.702 184.067 164.234 184.811C150.6 185.499 141.778 200.794 139.429 221.532C134.56 225.657 130.492 231.5 126.826 239.52V193.232C156.271 186.014 179.072 168.083 179.072 149.007C179.072 135.315 168.989 127.753 153.865 129.873C148.251 130.675 141.606 133.138 134.502 135.659C130.091 137.263 119.78 140.127 114.968 140.872C110.041 141.617 102.995 142.419 99.271 142.419C98.7555 142.419 98.469 142.705 98.469 143.336C98.469 144.023 99.4429 144.481 99.672 144.596C106.26 147.059 110.27 155.996 110.557 161.324C110.557 161.324 110.557 172.953 110.557 188.191C107.406 187.905 104.312 187.332 101.047 186.759C97.9534 186.186 94.8027 185.613 91.5946 185.327C80.4809 184.009 75.9553 175.588 76.4136 171.406C76.7573 168.255 78.8196 164.99 81.6839 163.157C81.6267 163.329 81.6267 163.558 81.5694 163.787C80.9392 169.458 85.293 174.557 91.1936 174.557C95.6047 174.557 99.6147 171.463 100.589 167.11C101.734 162.24 99.0419 157.6 94.7454 155.881L94.8027 155.767C87.0689 153.132 81.4548 155.137 78.0176 157.314C73.3773 160.292 70.112 165.391 69.5391 170.604C69.0808 174.958 70.7422 179.942 74.0648 183.895C74.8668 184.869 75.898 185.9 77.1583 186.931C76.7 187.103 76.1844 187.275 75.7261 187.504C65.7582 191.743 57.1652 199.878 51.4938 210.418C45.4786 221.589 42.9007 234.995 44.0465 249.202C45.7651 270.341 62.1491 293.943 83.0015 294H83.0588C92.3966 294 102.193 289.933 110.786 282.485C114.051 279.678 116.973 276.47 119.493 273.09C127.112 271.2 134.846 269.367 135.992 269.252C136.508 269.195 136.737 268.851 136.679 268.221C136.565 267.534 135.591 267.19 135.304 267.133C131.065 266.159 128.831 261.117 127.743 256.764C131.18 245.765 134.789 237.802 139.028 232.13C139.544 245.994 144.241 268.393 164.406 263.466C181.191 259.342 182.853 245.306 182.967 236.713C183.024 230.469 177.238 225.714 171.223 227.032ZM155.298 206.122C156.386 200.737 159.48 190.826 164.292 190.712C171.567 190.54 170.937 209.445 170.88 211.163C165.667 211.278 160.052 212.023 153.808 214.085C154.553 209.33 155.298 206.122 155.298 206.122ZM126.769 149.866C126.769 147.288 128.373 144.997 130.836 144.138C132.841 143.45 134.789 142.763 136.794 142.018C143.554 139.612 149.855 137.149 154.839 136.576C159.709 136.003 164.865 139.612 165.151 148.72C165.609 164.073 151.975 179.426 126.826 186.072V149.866H126.769ZM102.708 276.528C102.937 277.1 103.281 277.272 103.797 277.1C104.255 276.929 105.573 276.528 107.463 276.012C100.474 282.428 91.8237 287.011 83.0588 287.011H83.0015C66.3883 286.954 52.3531 266.674 50.9209 248.572C50.4053 242.385 50.749 236.312 51.7802 230.641C54.2435 218.496 61.0607 214.371 65.1853 212.538C69.5964 210.59 73.7211 211.049 76.1271 212.137C80.6528 214.199 82.2568 218.152 82.3141 222.391C80.5382 221.532 78.4759 221.131 76.299 221.532C72.117 222.277 68.7944 225.829 68.3934 230.068C67.8205 235.854 72.3462 240.723 78.0176 240.723C82.4287 240.723 86.0378 237.687 87.2981 233.677C91.5373 220.329 88.5011 210.304 78.9915 205.893C74.1221 203.659 67.9351 203.773 62.3783 206.237C66.7321 200.737 72.117 196.44 78.4186 193.748C85.3503 190.769 92.3393 192.087 99.7293 193.462C103.224 194.092 106.776 194.779 110.442 195.008C110.442 222.563 110.499 257.279 110.499 259.456C110.499 263.122 107.52 271.143 103.338 274.924C103.167 275.095 102.422 275.897 102.708 276.528Z" fill="#F1F3F3"/>
<path d="M252.513 130.962C249.535 132.909 234.01 143.966 215.392 157.084C212.183 159.319 208.517 160.063 205.996 153.876C205.996 153.876 205.996 153.876 205.996 153.819C205.939 153.59 205.825 153.418 205.71 153.246C204.106 150.095 200.841 147.919 197.117 147.919C191.789 147.919 187.436 152.272 187.436 157.6C187.436 160.35 188.581 162.87 190.472 164.646C190.529 164.704 190.529 164.704 190.586 164.761C192.42 166.422 195.799 168.427 201.299 168.427C207.486 168.427 212.183 166.766 215.678 164.474C218.657 162.527 234.182 151.47 252.8 138.352C256.008 136.117 259.674 135.373 262.195 141.56C262.195 141.56 262.195 141.56 262.195 141.617C262.252 141.846 262.367 142.018 262.481 142.19C264.085 145.341 267.351 147.517 271.074 147.517C276.402 147.517 280.756 143.164 280.756 137.836C280.756 135.086 279.61 132.566 277.72 130.79C277.662 130.732 277.662 130.732 277.605 130.675C275.772 129.014 272.392 127.009 266.892 127.009C260.763 127.009 256.065 128.67 252.513 130.962Z" fill="#F1F3F3"/>
</svg>
