<svg width="28" height="28" viewBox="0 0 28 28" fill="none" xmlns="http://www.w3.org/2000/svg">
<path d="M14 0C6.29737 0 0 6.29737 0 14C0 21.7026 6.29737 28 14 28C21.7026 28 28 21.7026 28 14C28 6.29737 21.77 0 14 0ZM20.44 20.23C20.1609 20.6491 19.6691 20.79 19.25 20.5074C15.96 18.48 11.8309 18.06 6.92737 19.1774C6.44 19.3217 6.02 18.9718 5.87825 18.5474C5.74175 18.06 6.08825 17.6409 6.50737 17.5C11.8309 16.31 16.4517 16.7974 20.0882 19.04C20.5809 19.25 20.6482 19.81 20.4391 20.23H20.44ZM22.1209 16.3791C21.77 16.8717 21.1409 17.0817 20.6482 16.73C16.8709 14.4191 11.1283 13.7226 6.72175 15.1209C6.16088 15.2574 5.52737 14.98 5.39087 14.4183C5.25 13.8582 5.52738 13.2291 6.08825 13.0883C11.2017 11.5474 17.4991 12.3217 21.8382 14.9791C22.2617 15.1891 22.4718 15.89 22.1209 16.3783V16.3791ZM22.2626 12.46C17.7782 9.79737 10.29 9.52 6.02 10.8509C5.31912 11.06 4.62087 10.6409 4.41087 10.0074C4.20175 9.31 4.62087 8.60825 5.25 8.39825C10.2226 6.92737 18.4109 7.20913 23.5935 10.2891C24.2226 10.64 24.4309 11.4791 24.0809 12.1082C23.73 12.6009 22.8909 12.8091 22.2617 12.4591L22.2626 12.46Z" fill="#04B499"/>
</svg>
